# xmcd
# 
# Track frame offsets:
#	150
#	12998
#	31091
#	42285
#	54977
#	67586
#	81532
#	91180
#	102374
#	117491
#
# Disc length: 1734 seconds
#
# Revision: 1
# Processed by: cddbd v1.4PL0 Copyright (c) Steve Scherf et al.
# Submitted via: Audio-CD-Archiv 2.10.438
#
DISCID=7406c40a
DTITLE=Various Artist - Country Music Cavalcade CD1
DYEAR=1900
DGENRE=country
TTITLE0=Shutters And Boards - Jerry Wallace
TTITLE1=Rock 'N' Roll Lullaby - B.J.
TTITLE2=Baby, Baby, I Know You're A Lady - David Houston
TTITLE3=In The Misty Moonlight Jerry Wallac
TTITLE4=Hocked On A Feeling - B. J.
TTITLE5=I Just Can't help Believin' - B. J.
TTITLE6=Church In The Wildwood - david Houston
TTITLE7=Primrose - Jerry Wallac
TTITLE8=I'm So Lonesome I Could Cry - B. J.
TTITLE9=My Elusive Dreams - david Houston
EXTD=
EXTT0=
EXTT1=
EXTT2=
EXTT3=
EXTT4=
EXTT5=
EXTT6=
EXTT7=
EXTT8=
EXTT9=
PLAYORDER=
